<?xml version="1.0" encoding="iso-8859-1"?>
<!-- Generator: Adobe Illustrator 19.0.0, SVG Export Plug-In . SVG Version: 6.00 Build 0)  -->
<svg version="1.1" id="Layer_1" xmlns="http://www.w3.org/2000/svg" xmlns:xlink="http://www.w3.org/1999/xlink" x="0px" y="0px"
	 viewBox="0 0 512.001 512.001" style="enable-background:new 0 0 512.001 512.001;" xml:space="preserve">
<path style="fill:#E8EAED;" d="M374.382,449.802c0-34.92,28.309-63.229,63.229-63.229c6.381,0,12.538,0.957,18.348,2.714V56.362
	c0-7.113-5.767-12.882-12.885-12.882H378.47v19.325c0,7.411-6.011,13.42-13.421,13.42c-7.412,0-13.42-6.009-13.42-13.42V43.48
	H116.515v19.325c0,7.411-6.01,13.42-13.422,13.42c-7.41,0-13.419-6.009-13.419-13.42V43.48H25.069
	c-7.115,0-12.882,5.769-12.882,12.882v380.559c0,7.112,5.767,12.882,12.882,12.882h349.312L374.382,449.802L374.382,449.802z"/>
<path style="fill:#BABABA;" d="M48.445,436.921V56.362c0-7.113,5.768-12.882,12.883-12.882H25.069
	c-7.115,0-12.882,5.769-12.882,12.882v380.559c0,7.112,5.767,12.882,12.882,12.882h36.259
	C54.213,449.803,48.445,444.034,48.445,436.921z"/>
<path style="fill:#EF443C;" d="M443.074,43.48h-64.605v19.325c0,7.411-6.011,13.42-13.421,13.42c-7.412,0-13.42-6.009-13.42-13.42
	V43.48H116.515v19.325c0,7.411-6.01,13.42-13.422,13.42c-7.41,0-13.419-6.009-13.419-13.42V43.48H25.069
	c-7.115,0-12.882,5.769-12.882,12.882v64.416h443.771V56.362C455.959,49.248,450.192,43.48,443.074,43.48z"/>
<path style="fill:#E23A2D;" d="M48.445,56.362c0-7.113,5.768-12.882,12.883-12.882H25.069c-7.115,0-12.882,5.769-12.882,12.882
	v64.416h36.258V56.362z"/>
<circle style="fill:#3BBC56;" cx="436.58" cy="448.766" r="63.233"/>
<path style="fill:#25A039;" d="M416.715,434.315c0-19.592,8.912-37.101,22.902-48.698c-1.006-0.048-2.018-0.077-3.038-0.077
	c-34.92,0-63.229,28.31-63.229,63.23s28.309,63.23,63.229,63.23c15.328,0,29.382-5.458,40.328-14.532
	C443.398,495.881,416.715,468.215,416.715,434.315z"/>
<path style="fill:#F5F5F5;" d="M432.323,476.549c-2.028,0-3.982-0.798-5.433-2.227l-18.894-18.609
	c-3.049-3.003-3.085-7.905-0.083-10.951c2.999-3.05,7.903-3.085,10.95-0.084l13.058,12.862l22.932-26.061
	c2.824-3.21,7.718-3.523,10.929-0.695c3.211,2.825,3.522,7.719,0.697,10.928l-28.343,32.208c-1.405,1.598-3.408,2.548-5.537,2.623
	C432.508,476.546,432.416,476.549,432.323,476.549z"/>
<g>
	<path style="fill:#454B60;" d="M300.76,383.465H167.385c-4.276,0-7.743-3.468-7.743-7.745s3.468-7.743,7.743-7.743h133.375
		c4.275,0,7.743,3.466,7.743,7.743C308.502,379.997,305.035,383.465,300.76,383.465z"/>
	<path style="fill:#454B60;" d="M300.76,410.303H167.385c-4.276,0-7.743-3.467-7.743-7.744s3.468-7.743,7.743-7.743h133.375
		c4.275,0,7.743,3.466,7.743,7.743C308.502,406.837,305.035,410.303,300.76,410.303z"/>
</g>
<path style="fill:#4A94CC;" d="M329.894,247.285c0,52.922-42.903,95.823-95.82,95.823c-52.922,0-95.823-42.901-95.823-95.823
	c0-52.917,42.901-95.821,95.823-95.821C286.992,151.464,329.894,194.367,329.894,247.285z"/>
<path style="fill:#56ADE2;" d="M262.243,155.676c-23.253,17.485-38.293,45.303-38.293,76.633c0,43.117,28.479,79.58,67.65,91.61
	c23.253-17.483,38.293-45.301,38.293-76.634C329.894,204.171,301.414,167.709,262.243,155.676z"/>
<polygon style="fill:#6EDCF9;" points="215.54,279.743 197.011,239.712 234.073,207.616 234.073,207.616 271.133,239.712 
	252.601,279.743 "/>
<path style="fill:#A7F0FC;" d="M234.073,207.616l-8.569,7.421c-1.02,5.603-1.554,11.376-1.554,17.273
	c0,17.26,4.573,33.446,12.56,47.433h16.091l18.532-40.03L234.073,207.616z"/>
<g>
	<path style="fill:#6EDCF9;" d="M204.51,156.121l29.564,18.877l29.562-18.877c-9.311-3.022-19.246-4.657-29.562-4.657
		C223.755,151.464,213.819,153.1,204.51,156.121z"/>
	<path style="fill:#6EDCF9;" d="M154.852,193.366c-10.473,15.36-16.603,33.924-16.603,53.918c0,4.858,0.364,9.631,1.062,14.296
		l29.513-28.984L154.852,193.366z"/>
</g>
<path style="fill:#A7F0FC;" d="M299.318,232.598l29.514,28.984c0.698-4.665,1.062-9.438,1.062-14.296
	c0-19.994-6.128-38.558-16.605-53.918L299.318,232.598z"/>
<g>
	<path style="fill:#6EDCF9;" d="M222.129,342.37l-19.652-36.192l-41.846,2.652C175.798,326.908,197.513,339.307,222.129,342.37z"/>
	<path style="fill:#6EDCF9;" d="M256.13,340.55c20.667-4.866,38.755-16.427,51.846-32.27l-33.183-2.102L256.13,340.55z"/>
</g>
<path style="fill:#A7F0FC;" d="M274.793,306.178l-4.461,8.216c6.609,3.989,13.736,7.212,21.262,9.523
	c0.835-0.627,1.659-1.267,2.473-1.919c0.246-0.198,0.488-0.401,0.732-0.601c0.666-0.547,1.325-1.103,1.977-1.665
	c0.256-0.223,0.513-0.442,0.767-0.668c0.83-0.733,1.65-1.479,2.456-2.243c0.162-0.154,0.321-0.313,0.482-0.469
	c0.663-0.64,1.318-1.286,1.963-1.944c0.258-0.262,0.516-0.525,0.77-0.792c0.637-0.664,1.265-1.334,1.881-2.016
	c0.152-0.169,0.31-0.333,0.461-0.503c0.732-0.819,1.449-1.657,2.153-2.503c0.086-0.104,0.17-0.208,0.255-0.312L274.793,306.178z"/>
<g>
	<path style="fill:#E8EAED;" d="M103.093,76.225c-7.41,0-13.419-6.009-13.419-13.42V13.42C89.675,6.007,95.684,0,103.093,0
		c7.412,0,13.422,6.007,13.422,13.42v49.386C116.515,70.216,110.505,76.225,103.093,76.225z"/>
	<path style="fill:#E8EAED;" d="M365.049,76.225c-7.412,0-13.42-6.009-13.42-13.42V13.42c0-7.413,6.007-13.42,13.42-13.42
		c7.41,0,13.421,6.007,13.421,13.42v49.386C378.47,70.216,372.459,76.225,365.049,76.225z"/>
</g>
<g>
	<path style="fill:#BABABA;" d="M103.146,62.805V13.42c0-4.953,2.69-9.271,6.682-11.594C107.848,0.672,105.551,0,103.093,0
		c-7.41,0-13.419,6.007-13.419,13.42v49.386c0,7.411,6.009,13.42,13.419,13.42c2.458,0,4.755-0.672,6.734-1.825
		C105.836,72.074,103.146,67.758,103.146,62.805z"/>
	<path style="fill:#BABABA;" d="M365.099,62.805V13.42c0-4.953,2.691-9.271,6.684-11.594C369.803,0.672,367.506,0,365.049,0
		c-7.412,0-13.42,6.007-13.42,13.42v49.386c0,7.411,6.008,13.42,13.42,13.42c2.457,0,4.754-0.672,6.734-1.825
		C367.79,72.074,365.099,67.758,365.099,62.805z"/>
</g>
<g>
</g>
<g>
</g>
<g>
</g>
<g>
</g>
<g>
</g>
<g>
</g>
<g>
</g>
<g>
</g>
<g>
</g>
<g>
</g>
<g>
</g>
<g>
</g>
<g>
</g>
<g>
</g>
<g>
</g>
</svg>
